<svg xmlns="http://www.w3.org/2000/svg" version="1.1" xmlnsXlink="http://www.w3.org/1999/xlink" xmlnsSvgjs="http://svgjs.dev/svgjs" width="1000" height="330" viewBox="0 0 1000 330"><g transform="matrix(1,0,0,1,-0.6059577083335057,-0.18773128396600214)"><svg viewBox="0 0 396 131" data-background-color="#ffffff" preserveAspectRatio="xMidYMid meet" height="330" width="1000" xmlns="http://www.w3.org/2000/svg" xmlnsXlink="http://www.w3.org/1999/xlink"><g id="tight-bounds" transform="matrix(1,0,0,1,0.23995925250005712,0.07452363090771996)"><svg viewBox="0 0 395.52 130.85095273818453" height="130.85095273818453" width="395.52"><g><svg viewBox="0 0 395.52 130.85095273818453" height="130.85095273818453" width="395.52"><g><svg viewBox="0 0 395.52 130.85095273818453" height="130.85095273818453" width="395.52"><g><svg viewBox="0 0 395.52 130.85095273818453" height="130.85095273818453" width="395.52"><g><svg viewBox="0 0 395.52 130.85095273818453" height="130.85095273818453" width="395.52"><g transform="matrix(1,0,0,1,0,0)"><svg width="395.52" viewBox="3 -40.5 133.2999725341797 41.10000228881836" height="130.85095273818453" data-palette-color="#ff5858"><svg></svg><g class="undefined-text-0" data-fill-palette-color="primary" id="text-0"><path xmlns="http://www.w3.org/2000/svg" d="M11.95 0h-8.95v-40.5h11.15c2.733 0 5.1 0.3 7.1 0.9 2 0.6 3.56 1.673 4.68 3.22 1.113 1.553 1.67 3.747 1.67 6.58v0c0 1.667-0.133 3.15-0.4 4.45-0.267 1.3-0.757 2.423-1.47 3.37-0.72 0.953-1.747 1.747-3.08 2.38v0l5.55 19.6h-9.25l-4.45-18.15h-2.55zM11.95-34.5v11.2h2.5c1.267 0 2.25-0.227 2.95-0.68 0.7-0.447 1.193-1.097 1.48-1.95 0.28-0.847 0.42-1.87 0.42-3.07v0c0-1.733-0.317-3.083-0.95-4.05-0.633-0.967-1.8-1.45-3.5-1.45v0zM51.1 0h-18.3v-40.5h18.2v6.1h-9.25v10.05h7.05v6.2h-7.05v12.1h9.35zM65.5 0h-10.35v-40.5h10.25c3.533 0 6.283 0.44 8.25 1.32 1.967 0.887 3.35 2.273 4.15 4.16 0.8 1.88 1.2 4.32 1.2 7.32v0 14.7c0 3.033-0.4 5.507-1.2 7.42-0.8 1.92-2.173 3.33-4.12 4.23-1.953 0.9-4.68 1.35-8.18 1.35zM64.1-34.25v28.05h1.4c1.367 0 2.35-0.2 2.95-0.6 0.6-0.4 0.977-1 1.13-1.8 0.147-0.8 0.22-1.8 0.22-3v0-17.65c0-1.2-0.09-2.167-0.27-2.9-0.187-0.733-0.58-1.267-1.18-1.6-0.6-0.333-1.567-0.5-2.9-0.5v0zM96.15 0.6v0c-3.1 0-5.523-0.51-7.27-1.53-1.753-1.013-2.98-2.497-3.68-4.45-0.7-1.947-1.05-4.337-1.05-7.17v0-27.95h8.85v29.3c0 0.833 0.067 1.667 0.2 2.5 0.133 0.833 0.427 1.517 0.88 2.05 0.447 0.533 1.137 0.8 2.07 0.8v0c0.967 0 1.667-0.267 2.1-0.8 0.433-0.533 0.71-1.217 0.83-2.05 0.113-0.833 0.17-1.667 0.17-2.5v0-29.3h8.9v27.95c0 2.833-0.357 5.223-1.07 7.17-0.72 1.953-1.947 3.437-3.68 4.45-1.733 1.02-4.15 1.53-7.25 1.53zM118.6 0h-7.4l7.85-21.8-7.5-18.7h8.45l4.45 10.95 3.6-10.95h7.45l-7.1 21.05 7.9 19.45h-8.4l-4.95-12.1z" fill="#ffffff" fill-rule="nonzero" stroke="none" stroke-width="1" stroke-linecap="butt" stroke-linejoin="miter" stroke-miterlimit="10" stroke-dasharray="" stroke-dashoffset="0" font-family="none" font-weight="none" font-size="none" text-anchor="none" style="mix-blend-mode: normal" data-fill-palette-color="primary" opacity="1"></path></g></svg></g></svg></g></svg></g></svg></g></svg></g><defs></defs></svg><rect width="395.52" height="130.85095273818453" fill="none" stroke="none" visibility="hidden"></rect></g></svg></g></svg>